<svg width="47" height="40" viewBox="0 0 47 40" fill="none" xmlns="http://www.w3.org/2000/svg">
<path d="M7.05277 7.6377C9.16889 7.6377 10.8843 5.92794 10.8843 3.81885C10.8843 1.70976 9.16889 0 7.05277 0C4.93665 0 3.22119 1.70976 3.22119 3.81885C3.22119 5.92794 4.93665 7.6377 7.05277 7.6377Z" fill="#2D3D54"/>
<path d="M6.61062 10.4284C3.81062 10.4284 1.6001 12.6316 1.6001 15.4223V24.235C1.6001 25.1163 2.33694 25.8507 3.22115 25.8507H5.13694V35.6915C5.13694 36.8666 6.02115 37.7478 7.20009 37.7478" stroke="#2D3D54" stroke-width="2" stroke-miterlimit="10" stroke-linecap="square" stroke-linejoin="round"/>
<path d="M32.2639 37.7479H36.9797C38.1586 37.7479 39.0428 36.8666 39.0428 35.6916V27.4663H42.2849C43.906 27.4663 45.0849 25.8507 44.4955 24.3819L40.0744 12.7785C39.4849 11.3097 38.1586 10.4284 36.5376 10.4284H31.2323H23.2744H15.4639C12.6639 10.4284 10.4534 12.6316 10.4534 15.4223V24.235C10.4534 25.1163 11.1902 25.8507 12.0744 25.8507H13.9902V35.6916C13.9902 36.8666 14.8744 37.7479 16.0534 37.7479H21.8007H32.2639Z" fill="#B3E9DD"/>
<path d="M18.7061 7.6377C20.8222 7.6377 22.5377 5.92794 22.5377 3.81885C22.5377 1.70976 20.8222 0 18.7061 0C16.59 0 14.8745 1.70976 14.8745 3.81885C14.8745 5.92794 16.59 7.6377 18.7061 7.6377Z" fill="#2D3D54"/>
<path d="M32.7932 7.44186C34.855 7.44186 36.5265 5.77594 36.5265 3.72093C36.5265 1.66592 34.855 0 32.7932 0C30.7313 0 29.0598 1.66592 29.0598 3.72093C29.0598 5.77594 30.7313 7.44186 32.7932 7.44186Z" fill="#2D3D54"/>
<mask id="mask0_2154_55" style="mask-type:alpha" maskUnits="userSpaceOnUse" x="10" y="10" width="35" height="28">
<path d="M32.2639 37.7479H36.9797C38.1586 37.7479 39.0428 36.8666 39.0428 35.6916V27.4663H42.2849C43.906 27.4663 45.0849 25.8507 44.4955 24.3819L40.0744 12.7785C39.4849 11.3097 38.1586 10.4284 36.5376 10.4284H31.2323H23.2744H15.4639C12.6639 10.4284 10.4534 12.6316 10.4534 15.4223V24.235C10.4534 25.1163 11.1902 25.8507 12.0744 25.8507H13.9902V35.6916C13.9902 36.8666 14.8744 37.7479 16.0534 37.7479H21.8007H32.2639Z" fill="#F9C6B1"/>
</mask>
<g mask="url(#mask0_2154_55)">
<rect x="8.97974" y="9" width="18" height="31" fill="#F9C6B1"/>
</g>
<path d="M23.2744 10.4284H15.4639C12.6639 10.4284 10.4534 12.6316 10.4534 15.4223V24.235C10.4534 25.1163 11.1902 25.8507 12.0744 25.8507H13.9902V35.6916C13.9902 36.8666 14.8744 37.7479 16.0534 37.7479H21.8007" stroke="#2D3D54" stroke-width="2" stroke-miterlimit="10" stroke-linecap="square" stroke-linejoin="round"/>
<path d="M31.2324 10.4284H36.5377C38.0114 10.4284 39.4851 11.3097 40.0745 12.7785L44.4956 24.3819C45.0851 25.8507 43.9061 27.4663 42.2851 27.4663H39.0429V35.6916C39.0429 36.8666 38.1587 37.7479 36.9798 37.7479H32.264" stroke="#2D3D54" stroke-width="2" stroke-miterlimit="10" stroke-linecap="square" stroke-linejoin="round"/>
<path d="M27.1059 20.7099C28.6523 20.7099 29.9059 19.4605 29.9059 17.9192C29.9059 16.378 28.6523 15.1285 27.1059 15.1285C25.5595 15.1285 24.3059 16.378 24.3059 17.9192C24.3059 19.4605 25.5595 20.7099 27.1059 20.7099Z" fill="#2D3D54"/>
<path d="M29.6112 37.7479V33.3415H31.9691V26.4382C31.9691 24.9694 30.7902 23.6475 29.1691 23.6475H24.8955C23.4218 23.6475 22.0955 24.8225 22.0955 26.4382V33.4884H24.4534V37.8947" fill="white"/>
<path d="M29.6112 37.7479V33.3415H31.9691V26.4382C31.9691 24.9694 30.7902 23.6475 29.1691 23.6475H24.8955C23.4218 23.6475 22.0955 24.8225 22.0955 26.4382V33.4884H24.4534V37.8947" stroke="#2D3D54" stroke-width="2" stroke-miterlimit="10" stroke-linecap="square" stroke-linejoin="round"/>
</svg>
