<svg width="44" height="54" viewBox="0 0 44 54" fill="none" xmlns="http://www.w3.org/2000/svg">
<path d="M29 34H15C7.2685 34 1 40.2685 1 48V50.3333C1 50.3333 8.29167 52.6667 22 52.6667C35.7083 52.6667 43 50.3333 43 50.3333V48C43 40.2685 36.7315 34 29 34Z" fill="#B3E9DD" stroke="#2D3D54" stroke-width="2" stroke-miterlimit="10" stroke-linecap="round" stroke-linejoin="round"/>
<path d="M10.3335 13C10.3335 6.5565 15.5567 1.33333 22.0002 1.33333C28.4437 1.33333 33.6668 6.5565 33.6668 13C33.6668 19.4435 28.4437 27 22.0002 27C15.5567 27 10.3335 19.4435 10.3335 13Z" fill="#F9C6B1" stroke="#2D3D54" stroke-width="2" stroke-miterlimit="10" stroke-linecap="round" stroke-linejoin="round"/>
<path d="M22 22.5385C25.3137 22.5385 28 20.0588 28 17H16C16 20.0588 18.6863 22.5385 22 22.5385Z" fill="#2D3D54"/>
</svg>
