<svg width="54" height="54" viewBox="0 0 54 54" fill="none" xmlns="http://www.w3.org/2000/svg">
<path d="M29.3335 48.5763C29.3335 46.677 28.1937 44.9597 26.4308 44.2538C24.0042 43.2832 20.1647 42.1667 15.3335 42.1667C10.5023 42.1667 6.66283 43.2832 4.23616 44.2538C2.47333 44.9597 1.3335 46.6782 1.3335 48.5763V52.6667H29.3335V48.5763Z" fill="#B3E9DD" stroke="#203248" stroke-width="2" stroke-miterlimit="10" stroke-linecap="round" stroke-linejoin="round"/>
<path d="M29.3335 31.6293C31.556 30.9643 34.265 30.5 37.5002 30.5C43.3172 30.5 47.1345 32.0003 49.4853 33.4785C51.4908 34.7408 52.6668 36.9785 52.6668 39.348V52.6667H37.5002" fill="#F9C6B1"/>
<path d="M29.3335 31.6293C31.556 30.9643 34.265 30.5 37.5002 30.5C43.3172 30.5 47.1345 32.0003 49.4853 33.4785C51.4908 34.7408 52.6668 36.9785 52.6668 39.348V52.6667H37.5002" stroke="#203248" stroke-width="2" stroke-miterlimit="10" stroke-linecap="round" stroke-linejoin="round"/>
<path d="M6 25.8333C6 20.679 10.179 16.5 15.3333 16.5C20.4877 16.5 24.6667 20.679 24.6667 25.8333C24.6667 30.9877 20.4877 36.3333 15.3333 36.3333C10.179 36.3333 6 30.9877 6 25.8333Z" fill="#FFDE9E" stroke="#203248" stroke-width="2" stroke-miterlimit="10" stroke-linecap="round" stroke-linejoin="round"/>
<path d="M15.3335 33C17.5426 33 19.3335 31.2091 19.3335 29H11.3335C11.3335 31.2091 13.1244 33 15.3335 33Z" fill="#2D3D54"/>
<path d="M27 11.8333C27 6.03383 31.7005 1.33333 37.5 1.33333C43.2995 1.33333 48 6.03383 48 11.8333C48 17.6328 43.2995 24.6667 37.5 24.6667C31.7005 24.6667 27 17.6328 27 11.8333Z" fill="#FFDE9E" stroke="#203248" stroke-width="2" stroke-miterlimit="10" stroke-linecap="round" stroke-linejoin="round"/>
<path d="M37.5 21C40.2614 21 42.5 18.3137 42.5 15H32.5C32.5 18.3137 34.7386 21 37.5 21Z" fill="#2D3D54"/>
</svg>
