<svg width="48" height="48" viewBox="0 0 48 48" fill="none" xmlns="http://www.w3.org/2000/svg">
<circle cx="24" cy="24" r="24" fill="#FFDE9E"/>
<path d="M24 39C17.372 39 12 33.628 12 27V21C12 14.372 17.372 9 24 9C30.628 9 36 14.372 36 21V27C36 33.628 30.628 39 24 39Z" fill="white"/>
<mask id="mask0_2366_893" style="mask-type:alpha" maskUnits="userSpaceOnUse" x="12" y="9" width="24" height="30">
<path d="M24 39C17.372 39 12 33.628 12 27V21C12 14.372 17.372 9 24 9C30.628 9 36 14.372 36 21V27C36 33.628 30.628 39 24 39Z" fill="white"/>
</mask>
<g mask="url(#mask0_2366_893)">
<path d="M28.6956 29.8696C29.8482 29.8696 30.7826 28.9352 30.7826 27.7826C30.7826 26.63 29.8482 25.6957 28.6956 25.6957C27.543 25.6957 26.6086 26.63 26.6086 27.7826C26.6086 28.9352 27.543 29.8696 28.6956 29.8696Z" fill="#2D3D54"/>
<path d="M19.3042 29.8696C20.4568 29.8696 21.3912 28.9352 21.3912 27.7826C21.3912 26.63 20.4568 25.6957 19.3042 25.6957C18.1516 25.6957 17.2173 26.63 17.2173 27.7826C17.2173 28.9352 18.1516 29.8696 19.3042 29.8696Z" fill="#2D3D54"/>
<path fill-rule="evenodd" clip-rule="evenodd" d="M20.0001 17.6363C22.1499 20.8694 25.8259 23 30 23C36.628 23 42 17.628 42 11V5C42 -1.628 36.628 -7 30 -7C25.8259 -7 22.1499 -4.86939 20.0001 -1.63625C17.8504 -4.86939 14.1744 -7 10.0002 -7C3.37224 -7 -1.99976 -1.628 -1.99976 5V11C-1.99976 17.628 3.37224 23 10.0002 23C14.1744 23 17.8504 20.8694 20.0001 17.6363Z" fill="#2D3D54"/>
</g>
<path d="M24 39C17.372 39 12 33.628 12 27V21C12 14.372 17.372 9 24 9C30.628 9 36 14.372 36 21V27C36 33.628 30.628 39 24 39Z" stroke="#2D3D54" stroke-width="2.2" stroke-miterlimit="10" stroke-linecap="square"/>
</svg>
